<svg xmlns="http://www.w3.org/2000/svg" viewBox="0 0 760 320" width="760" height="320" role="img" aria-labelledby="pkg-cmp-title">
  <title id="pkg-cmp-title">포장재 소재 4종 비교 인포그래픽: 골판지, 단프라, OPP·PE 필름, 친환경 소재 — 내수성·재사용성·단가·환경 적합성</title>
  <desc>골판지, 단프라, OPP·PE 필름, 친환경 소재 네 가지 포장재 소재의 내수성, 재사용성, 단가, 환경 적합성을 막대 그래프로 시각화한 비교표입니다.</desc>
  <rect width="760" height="320" fill="#F8FAFC"/>
  <!-- 헤더 -->
  <rect x="0" y="0" width="760" height="44" fill="#0F172A"/>
  <text x="380" y="28" text-anchor="middle" font-family="system-ui,-apple-system,sans-serif" font-size="15" font-weight="600" fill="#F97316">포장재 소재 4종 핵심 비교</text>
  <!-- 카드 1: 골판지 -->
  <g transform="translate(20,56)">
    <rect width="165" height="240" rx="8" fill="white" stroke="#E2E8F0" stroke-width="1.5"/>
    <rect width="165" height="6" rx="8" fill="#F97316"/>
    <rect y="3" width="165" height="3" fill="#F97316"/>
    <text x="82" y="34" text-anchor="middle" font-family="system-ui,-apple-system,sans-serif" font-size="14" font-weight="700" fill="#0F172A">골판지</text>
    <text x="82" y="50" text-anchor="middle" font-family="system-ui,-apple-system,sans-serif" font-size="10" fill="#64748B">Corrugated Cardboard</text>
    <line x1="16" y1="60" x2="149" y2="60" stroke="#E2E8F0" stroke-width="1"/>
    <text x="16" y="80" font-family="system-ui,-apple-system,sans-serif" font-size="10" fill="#334155">내수성</text>
    <rect x="16" y="84" width="133" height="7" rx="3" fill="#E2E8F0"/>
    <rect x="16" y="84" width="40" height="7" rx="3" fill="#F97316"/>
    <text x="16" y="106" font-family="system-ui,-apple-system,sans-serif" font-size="10" fill="#334155">재사용성</text>
    <rect x="16" y="110" width="133" height="7" rx="3" fill="#E2E8F0"/>
    <rect x="16" y="110" width="27" height="7" rx="3" fill="#F97316"/>
    <text x="16" y="132" font-family="system-ui,-apple-system,sans-serif" font-size="10" fill="#334155">단가 경쟁력</text>
    <rect x="16" y="136" width="133" height="7" rx="3" fill="#E2E8F0"/>
    <rect x="16" y="136" width="120" height="7" rx="3" fill="#C2410C"/>
    <text x="16" y="158" font-family="system-ui,-apple-system,sans-serif" font-size="10" fill="#334155">환경 적합성</text>
    <rect x="16" y="162" width="133" height="7" rx="3" fill="#E2E8F0"/>
    <rect x="16" y="162" width="106" height="7" rx="3" fill="#F97316"/>
    <rect x="12" y="186" width="141" height="1" fill="#E2E8F0"/>
    <text x="82" y="204" text-anchor="middle" font-family="system-ui,-apple-system,sans-serif" font-size="10" fill="#64748B">범용성 최고 · 저비용</text>
    <text x="82" y="220" text-anchor="middle" font-family="system-ui,-apple-system,sans-serif" font-size="10" fill="#C2410C">택배·외박스 최적</text>
  </g>
  <!-- 카드 2: 단프라 -->
  <g transform="translate(198,56)">
    <rect width="165" height="240" rx="8" fill="white" stroke="#E2E8F0" stroke-width="1.5"/>
    <rect width="165" height="6" rx="8" fill="#F97316"/>
    <rect y="3" width="165" height="3" fill="#F97316"/>
    <text x="82" y="34" text-anchor="middle" font-family="system-ui,-apple-system,sans-serif" font-size="14" font-weight="700" fill="#0F172A">단프라</text>
    <text x="82" y="50" text-anchor="middle" font-family="system-ui,-apple-system,sans-serif" font-size="10" fill="#64748B">PP Corrugated Plastic</text>
    <line x1="16" y1="60" x2="149" y2="60" stroke="#E2E8F0" stroke-width="1"/>
    <text x="16" y="80" font-family="system-ui,-apple-system,sans-serif" font-size="10" fill="#334155">내수성</text>
    <rect x="16" y="84" width="133" height="7" rx="3" fill="#E2E8F0"/>
    <rect x="16" y="84" width="126" height="7" rx="3" fill="#F97316"/>
    <text x="16" y="106" font-family="system-ui,-apple-system,sans-serif" font-size="10" fill="#334155">재사용성</text>
    <rect x="16" y="110" width="133" height="7" rx="3" fill="#E2E8F0"/>
    <rect x="16" y="110" width="126" height="7" rx="3" fill="#F97316"/>
    <text x="16" y="132" font-family="system-ui,-apple-system,sans-serif" font-size="10" fill="#334155">단가 경쟁력</text>
    <rect x="16" y="136" width="133" height="7" rx="3" fill="#E2E8F0"/>
    <rect x="16" y="136" width="60" height="7" rx="3" fill="#C2410C"/>
    <text x="16" y="158" font-family="system-ui,-apple-system,sans-serif" font-size="10" fill="#334155">환경 적합성</text>
    <rect x="16" y="162" width="133" height="7" rx="3" fill="#E2E8F0"/>
    <rect x="16" y="162" width="80" height="7" rx="3" fill="#F97316"/>
    <rect x="12" y="186" width="141" height="1" fill="#E2E8F0"/>
    <text x="82" y="204" text-anchor="middle" font-family="system-ui,-apple-system,sans-serif" font-size="10" fill="#64748B">내수성 최고 · 재사용</text>
    <text x="82" y="220" text-anchor="middle" font-family="system-ui,-apple-system,sans-serif" font-size="10" fill="#C2410C">회수 물류 최적</text>
  </g>
  <!-- 카드 3: OPP·PE 필름 -->
  <g transform="translate(376,56)">
    <rect width="165" height="240" rx="8" fill="white" stroke="#E2E8F0" stroke-width="1.5"/>
    <rect width="165" height="6" rx="8" fill="#F97316"/>
    <rect y="3" width="165" height="3" fill="#F97316"/>
    <text x="82" y="34" text-anchor="middle" font-family="system-ui,-apple-system,sans-serif" font-size="14" font-weight="700" fill="#0F172A">OPP · PE 필름</text>
    <text x="82" y="50" text-anchor="middle" font-family="system-ui,-apple-system,sans-serif" font-size="10" fill="#64748B">Plastic Film</text>
    <line x1="16" y1="60" x2="149" y2="60" stroke="#E2E8F0" stroke-width="1"/>
    <text x="16" y="80" font-family="system-ui,-apple-system,sans-serif" font-size="10" fill="#334155">내수성</text>
    <rect x="16" y="84" width="133" height="7" rx="3" fill="#E2E8F0"/>
    <rect x="16" y="84" width="113" height="7" rx="3" fill="#F97316"/>
    <text x="16" y="106" font-family="system-ui,-apple-system,sans-serif" font-size="10" fill="#334155">재사용성</text>
    <rect x="16" y="110" width="133" height="7" rx="3" fill="#E2E8F0"/>
    <rect x="16" y="110" width="13" height="7" rx="3" fill="#F97316"/>
    <text x="16" y="132" font-family="system-ui,-apple-system,sans-serif" font-size="10" fill="#334155">단가 경쟁력</text>
    <rect x="16" y="136" width="133" height="7" rx="3" fill="#E2E8F0"/>
    <rect x="16" y="136" width="122" height="7" rx="3" fill="#C2410C"/>
    <text x="16" y="158" font-family="system-ui,-apple-system,sans-serif" font-size="10" fill="#334155">환경 적합성</text>
    <rect x="16" y="162" width="133" height="7" rx="3" fill="#E2E8F0"/>
    <rect x="16" y="162" width="33" height="7" rx="3" fill="#F97316"/>
    <rect x="12" y="186" width="141" height="1" fill="#E2E8F0"/>
    <text x="82" y="204" text-anchor="middle" font-family="system-ui,-apple-system,sans-serif" font-size="10" fill="#64748B">초저비용 · 1회용</text>
    <text x="82" y="220" text-anchor="middle" font-family="system-ui,-apple-system,sans-serif" font-size="10" fill="#C2410C">완충·밀봉 포장 최적</text>
  </g>
  <!-- 카드 4: 친환경 -->
  <g transform="translate(554,56)">
    <rect width="165" height="240" rx="8" fill="white" stroke="#E2E8F0" stroke-width="1.5"/>
    <rect width="165" height="6" rx="8" fill="#F97316"/>
    <rect y="3" width="165" height="3" fill="#F97316"/>
    <text x="82" y="34" text-anchor="middle" font-family="system-ui,-apple-system,sans-serif" font-size="14" font-weight="700" fill="#0F172A">친환경 소재</text>
    <text x="82" y="50" text-anchor="middle" font-family="system-ui,-apple-system,sans-serif" font-size="10" fill="#64748B">Kraft / Biodegradable</text>
    <line x1="16" y1="60" x2="149" y2="60" stroke="#E2E8F0" stroke-width="1"/>
    <text x="16" y="80" font-family="system-ui,-apple-system,sans-serif" font-size="10" fill="#334155">내수성</text>
    <rect x="16" y="84" width="133" height="7" rx="3" fill="#E2E8F0"/>
    <rect x="16" y="84" width="40" height="7" rx="3" fill="#F97316"/>
    <text x="16" y="106" font-family="system-ui,-apple-system,sans-serif" font-size="10" fill="#334155">재사용성</text>
    <rect x="16" y="110" width="133" height="7" rx="3" fill="#E2E8F0"/>
    <rect x="16" y="110" width="27" height="7" rx="3" fill="#F97316"/>
    <text x="16" y="132" font-family="system-ui,-apple-system,sans-serif" font-size="10" fill="#334155">단가 경쟁력</text>
    <rect x="16" y="136" width="133" height="7" rx="3" fill="#E2E8F0"/>
    <rect x="16" y="136" width="47" height="7" rx="3" fill="#C2410C"/>
    <text x="16" y="158" font-family="system-ui,-apple-system,sans-serif" font-size="10" fill="#334155">환경 적합성</text>
    <rect x="16" y="162" width="133" height="7" rx="3" fill="#E2E8F0"/>
    <rect x="16" y="162" width="130" height="7" rx="3" fill="#F97316"/>
    <rect x="12" y="186" width="141" height="1" fill="#E2E8F0"/>
    <text x="82" y="204" text-anchor="middle" font-family="system-ui,-apple-system,sans-serif" font-size="10" fill="#64748B">환경 규제 최적 · 고급</text>
    <text x="82" y="220" text-anchor="middle" font-family="system-ui,-apple-system,sans-serif" font-size="10" fill="#C2410C">친환경 브랜딩 최적</text>
  </g>
  <!-- 범례 -->
  <rect x="20" y="304" width="12" height="8" rx="2" fill="#F97316"/>
  <text x="36" y="312" font-family="system-ui,-apple-system,sans-serif" font-size="10" fill="#334155">일반 지표</text>
  <rect x="130" y="304" width="12" height="8" rx="2" fill="#C2410C"/>
  <text x="146" y="312" font-family="system-ui,-apple-system,sans-serif" font-size="10" fill="#334155">비용 지표</text>
  <text x="380" y="312" text-anchor="middle" font-family="system-ui,-apple-system,sans-serif" font-size="10" fill="#64748B">※ 막대 길이는 상대 비교 참고치 — 업체·사양에 따라 차이 있음</text>
</svg>
